# xmcd
#
# Track frame offsets:
#	150
#	13632
#	26477
#	37160
#	51845
#	77357
#	89127
#	112517
#	130240
#	143940
#	159727
#	175912
#	188075
#	204495
#	224917
#	236430
#
# Disc length: 3290 seconds
#
# Revision: 3
# Processed by: cddbd v1.5.2PL0 Copyright (c) Steve Scherf et al.
# Submitted via: dBpowerAMP V4.0
#
DISCID=dd0cd810
DTITLE=Various Artist - Soul Collection Vol. 4
DYEAR=1993
DGENRE=Rhythmic Soul
TTITLE0=The Original Lead Singers Of The Temptations - I Can't Get Next To You
TTITLE1=Ben E. King - Don't Play That Song (You Lied)
TTITLE2=Rufus Thomas - Walking The Dog
TTITLE3=Joe Simon - Drowning In The Sea Of Love
TTITLE4=Chuck Browmn and The Soul Searchers - Never Gonna Give You Up
TTITLE5=Jerry Butler - Only The Strong Survive
TTITLE6=The Manhattans - Don't Let Go
TTITLE7=Sam and Dave - Mustang Sally
TTITLE8=Martha Reeves - Nowhere To Run
TTITLE9=Al Wilson - The Snake
TTITLE10=Harold Melvin and The Blue Notes - The Love I Lost
TTITLE11=Bobby Womack - Looking For A Love
TTITLE12=Ike and Tina Turner - Mississippi Rolling Stone
TTITLE13=De Barge - You're A Big Boy
TTITLE14=The Drifters - Up On The Roof
TTITLE15=Clarence Carter - Too Weak To Fight
EXTD=
EXTT0=
EXTT1=
EXTT2=
EXTT3=
EXTT4=
EXTT5=
EXTT6=
EXTT7=
EXTT8=
EXTT9=
EXTT10=
EXTT11=
EXTT12=
EXTT13=
EXTT14=
EXTT15=
PLAYORDER=
